<svg width="96" height="96" viewBox="0 0 96 96" fill="none" xmlns="http://www.w3.org/2000/svg" shape-rendering="crispEdges">
  <rect width="96" height="96" rx="18" fill="#071625"/>
  <path d="M48 8H78V34H72V58H66V72H60V78H48H36V72H30V58H24V34H18V8H48Z" fill="#0C2A44"/>
  <path d="M24 14H72V32H66V56H60V68H54V74H42V68H36V56H30V32H24V14Z" fill="#102F4D"/>
  <path d="M30 20H66V32H60V44H54V56H42V44H36V32H30V20Z" fill="#F97316"/>
  <path d="M36 26H42V32H36V26ZM54 26H60V32H54V26Z" fill="#FFD6A5"/>
  <path d="M36 38H42V44H36V38ZM54 38H60V44H54V38Z" fill="#071625"/>
  <path d="M42 44H54V50H48V56H42V44Z" fill="#FFFFFF"/>
  <path d="M48 50H54V56H48V50Z" fill="#D9F6FF"/>
  <path d="M30 14H42V20H36V26H30V14ZM54 14H66V26H60V20H54V14Z" fill="#FFB86B"/>
  <path d="M18 8H78V14H84V36H78V60H72V74H66V80H54V86H42V80H30V74H24V60H18V36H12V14H18V8ZM18 14V34H24V58H30V72H36V78H42V84H54V78H60V72H66V58H72V34H78V14H18Z" fill="#7DF4FF"/>
  <path d="M24 20H30V26H24V20ZM66 20H72V26H66V20ZM30 62H36V68H30V62ZM60 62H66V68H60V62Z" fill="#43A7FF"/>
</svg>
